<svg width="15" height="16" viewBox="0 0 15 16" fill="none" xmlns="http://www.w3.org/2000/svg">
<path fill-rule="evenodd" clip-rule="evenodd" d="M7.5 15.563C11.6421 15.563 15 12.1769 15 8.00001C15 3.82306 11.6421 0.436981 7.5 0.436981C3.35786 0.436981 -2.52844e-08 3.82306 0 8.00001C2.52844e-08 12.1769 3.35786 15.563 7.5 15.563ZM4.51875 3.92661L11.3683 8.06299C11.4666 8.13823 11.4975 8.2093 11.5098 8.25866C11.5518 8.42751 11.45 8.5989 11.2825 8.64123L9.25141 9.15472L11.1514 11.6754C11.2212 11.7678 11.2032 11.8998 11.1115 11.9697L9.94913 12.8618C9.92638 12.8792 9.9007 12.8918 9.8736 12.8987C9.84813 12.9051 9.82143 12.9067 9.79482 12.9035C9.73998 12.8957 9.69061 12.8665 9.65722 12.822L7.69472 10.2193L6.50878 11.9361C6.47641 11.9911 6.40842 12.0409 6.32955 12.0608C6.16211 12.1031 5.99215 12.0005 5.95017 11.8316L4.07434 4.28652C4.01461 4.04628 4.2782 3.81669 4.51875 3.92661Z" fill="black"/>
</svg>
