<svg width="15" height="16" viewBox="0 0 15 16" fill="none" xmlns="http://www.w3.org/2000/svg">
<g clip-path="url(#clip0)">
<path fill-rule="evenodd" clip-rule="evenodd" d="M7.5 15.13C11.6421 15.13 15 11.743 15 7.565C15 3.38696 11.6421 0 7.5 0C3.35786 0 0 3.38696 0 7.565C0 11.743 3.35786 15.13 7.5 15.13ZM6.49479 5.09269L9.83522 7.24611C9.93725 7.31197 10.0002 7.43356 10 7.56509C10 7.69662 9.93717 7.81827 9.8351 7.88398L6.49467 10.0374C6.44367 10.0703 6.38668 10.0867 6.3298 10.0867C6.27285 10.0867 6.21598 10.0703 6.16482 10.0374C6.063 9.97168 6 9.85008 6 9.71846V5.41172C6 5.28014 6.06287 5.15845 6.16482 5.09269C6.26706 5.02688 6.39268 5.02688 6.49479 5.09269Z" fill="black"/>
</g>
<defs>
<clipPath id="clip0">
<rect width="15" height="15.13" fill="white"/>
</clipPath>
</defs>
</svg>
