<svg width="15" height="16" viewBox="0 0 15 16" fill="none" xmlns="http://www.w3.org/2000/svg">
<path fill-rule="evenodd" clip-rule="evenodd" d="M15 7.56302C15 11.74 11.6421 15.126 7.5 15.126C3.35786 15.126 0 11.74 0 7.56302C0 3.38608 3.35786 0 7.5 0C11.6421 0 15 3.38608 15 7.56302ZM12 7.56303C12 8.39842 11.3284 9.07563 10.5 9.07563C9.67157 9.07563 9 8.39842 9 7.56303C9 6.72764 9.67157 6.05042 10.5 6.05042C11.3284 6.05042 12 6.72764 12 7.56303ZM4.5 9.07563C5.32843 9.07563 6 8.39842 6 7.56303C6 6.72764 5.32843 6.05042 4.5 6.05042C3.67157 6.05042 3 6.72764 3 7.56303C3 8.39842 3.67157 9.07563 4.5 9.07563ZM9 4.53782C9 5.3732 8.32843 6.05042 7.5 6.05042C6.67157 6.05042 6 5.3732 6 4.53782C6 3.70243 6.67157 3.02521 7.5 3.02521C8.32843 3.02521 9 3.70243 9 4.53782ZM7.5 12.1008C8.32843 12.1008 9 11.4236 9 10.5882C9 9.75285 8.32843 9.07563 7.5 9.07563C6.67157 9.07563 6 9.75285 6 10.5882C6 11.4236 6.67157 12.1008 7.5 12.1008Z" fill="white"/>
</svg>
