<svg width="15" height="16" viewBox="0 0 15 16" fill="none" xmlns="http://www.w3.org/2000/svg">
<path d="M7.5 0.701782C3.36469 0.701782 0 4.09474 0 8.26481C0 11.5708 2.18906 14.5478 5.32406 15.5045C5.35031 15.513 5.3775 15.5168 5.40469 15.5168C5.48156 15.5168 5.55562 15.4847 5.60906 15.426C5.68125 15.3466 5.70187 15.2332 5.6625 15.133C2.70656 7.61722 2.17125 5.86827 2.08687 5.46554C2.48531 5.25378 3.82031 4.96071 4.17469 5.01932C4.27875 5.16964 4.49438 5.70094 4.68563 6.17363C5.41219 7.96607 6.51 10.6755 8.03531 10.7852C9.11812 10.8637 10.0922 10.4496 10.65 9.68004C10.9884 9.21208 11.1038 8.68361 10.9519 8.30073C10.7203 7.71838 9.65438 5.26512 9.27563 4.39443L10.9462 3.97279C11.3109 4.84727 12.6337 7.96796 13.2581 8.72426C13.5309 9.05325 13.9997 9.25556 14.6512 9.32363C14.8059 9.33687 14.94 9.22815 14.9559 9.075C14.9859 8.8084 15 8.53519 15 8.26481C15 4.09474 11.6353 0.701782 7.5 0.701782Z" fill="black"/>
</svg>
